<svg xmlns="http://www.w3.org/2000/svg" version="1.1" xmlns:xlink="http://www.w3.org/1999/xlink" xmlns:svgjs="http://svgjs.dev/svgjs" width="2000" height="1500" viewBox="0 0 2000 1500"><rect width="2000" height="1500" fill="#f9f9f9"></rect><g transform="matrix(0.75,0,0,0.75,249.090909090909,555.0515672994275)"><svg viewBox="0 0 396 102" data-background-color="#f9f9f9" preserveAspectRatio="xMidYMid meet" height="515" width="2000" xmlns="http://www.w3.org/2000/svg" xmlns:xlink="http://www.w3.org/1999/xlink"><g id="tight-bounds" transform="matrix(1,0,0,1,0.2400000000000091,0.4815278587919636)"><svg viewBox="0 0 395.52 101.03661667495392" height="101.03661667495392" width="395.52"><g><svg viewBox="0 0 564.2946144593815 144.15053259727304" height="101.03661667495392" width="395.52"><g transform="matrix(1,0,0,1,168.7746144593815,19.922396328566684)"><svg viewBox="0 0 395.52 104.30573994013967" height="104.30573994013967" width="395.52"><g id="textblocktransform"><svg viewBox="0 0 395.52 104.30573994013967" height="104.30573994013967" width="395.52" id="textblock"><g><svg viewBox="0 0 395.52 104.30573994013967" height="104.30573994013967" width="395.52"><g transform="matrix(1,0,0,1,0,0)"><svg width="395.52" viewBox="3.45 -39.2 150.34 39.650000000000006" height="104.30573994013967" data-palette-color="#030303"><path d="M33.3-34.95L33.3 0 26.3 0 10.45-23.95 10.45 0 3.45 0 3.45-34.95 10.45-34.95 26.3-10.95 26.3-34.95 33.3-34.95ZM59.3-27.7L66.35-27.7 66.35 0 59.3 0 59.3-3.5Q57.95-1.7 55.77-0.68 53.6 0.35 51.05 0.35L51.05 0.35Q47.8 0.35 45.3-1.03 42.8-2.4 41.37-5.08 39.95-7.75 39.95-11.45L39.95-11.45 39.95-27.7 46.95-27.7 46.95-12.45Q46.95-9.15 48.6-7.38 50.25-5.6 53.1-5.6L53.1-5.6Q56-5.6 57.65-7.38 59.3-9.15 59.3-12.45L59.3-12.45 59.3-27.7ZM87.6-21.95L81.4-21.95 81.4-8.55Q81.4-7.15 82.07-6.53 82.75-5.9 84.35-5.9L84.35-5.9 87.6-5.9 87.6 0 83.2 0Q74.35 0 74.35-8.6L74.35-8.6 74.35-21.95 71.05-21.95 71.05-27.7 74.35-27.7 74.35-34.55 81.4-34.55 81.4-27.7 87.6-27.7 87.6-21.95ZM99.64-23.4Q100.99-25.6 103.17-26.85 105.34-28.1 108.14-28.1L108.14-28.1 108.14-20.75 106.29-20.75Q102.99-20.75 101.32-19.2 99.64-17.65 99.64-13.8L99.64-13.8 99.64 0 92.64 0 92.64-27.7 99.64-27.7 99.64-23.4ZM116.39-31Q114.54-31 113.32-32.18 112.09-33.35 112.09-35.1L112.09-35.1Q112.09-36.85 113.32-38.02 114.54-39.2 116.39-39.2L116.39-39.2Q118.24-39.2 119.47-38.02 120.69-36.85 120.69-35.1L120.69-35.1Q120.69-33.35 119.47-32.18 118.24-31 116.39-31L116.39-31ZM112.84-27.7L119.84-27.7 119.84 0 112.84 0 112.84-27.7ZM124.94-13.95Q124.94-18.15 126.61-21.4 128.29-24.65 131.16-26.4 134.04-28.15 137.59-28.15L137.59-28.15Q140.69-28.15 143.01-26.9 145.34-25.65 146.74-23.75L146.74-23.75 146.74-27.7 153.79-27.7 153.79 0 146.74 0 146.74-4.05Q145.39-2.1 143.01-0.83 140.64 0.45 137.54 0.45L137.54 0.45Q134.04 0.45 131.16-1.35 128.29-3.15 126.61-6.43 124.94-9.7 124.94-13.95L124.94-13.95ZM146.74-13.85Q146.74-16.4 145.74-18.23 144.74-20.05 143.04-21.03 141.34-22 139.39-22L139.39-22Q137.44-22 135.79-21.05 134.14-20.1 133.11-18.28 132.09-16.45 132.09-13.95L132.09-13.95Q132.09-11.45 133.11-9.58 134.14-7.7 135.81-6.7 137.49-5.7 139.39-5.7L139.39-5.7Q141.34-5.7 143.04-6.68 144.74-7.65 145.74-9.47 146.74-11.3 146.74-13.85L146.74-13.85Z" opacity="1" transform="matrix(1,0,0,1,0,0)" fill="#030303" class="wordmark-text-0" data-fill-palette-color="primary" id="text-0"></path></svg></g></svg></g></svg></g></svg></g><g><svg viewBox="0 0 144.15053259727307 144.15053259727304" height="144.15053259727304" width="144.15053259727307"><g><svg></svg></g><g id="icon-0"><svg viewBox="0 0 144.15053259727307 144.15053259727304" height="144.15053259727304" width="144.15053259727307"><g><path transform="scale(1.44151,1.44151)" d="M30 100c-16.569 0-30-13.431-30-30v-40c0-16.569 13.431-30 30-30h40c16.569 0 30 13.431 30 30v40c0 16.569-13.431 30-30 30z" fill="#cbea7b" fill-rule="nonzero" stroke="none" stroke-width="1" stroke-linecap="butt" stroke-linejoin="miter" stroke-miterlimit="10" stroke-dasharray="" stroke-dashoffset="0" font-family="none" font-weight="none" font-size="none" text-anchor="none" style="mix-blend-mode: normal" data-fill-palette-color="accent"></path></g><g transform="matrix(1,0,0,1,28.830106519454624,41.26745479520419)"><svg viewBox="0 0 86.49031955836382 61.61562300686466" height="61.61562300686466" width="86.49031955836382"><g><svg xmlns="http://www.w3.org/2000/svg" xmlns:xlink="http://www.w3.org/1999/xlink" version="1.1" x="0" y="0" viewBox="0.836 8.628 112.82300000000001 80.375" enable-background="new 0 0 114.667 100" xml:space="preserve" height="61.61562300686466" width="86.49031955836382" class="icon-dxe-0" data-fill-palette-color="quaternary" id="dxe-0"><path d="M98.059 8.628C92.081 8.628 86.885 12.012 84.267 16.962 80.275 16.303 74.081 16.204 68.045 19.833 59.556 24.936 54.395 35.442 52.705 51.061 51.76 59.798 48.94 65.628 44.327 68.388 40.264 70.819 35.301 70.656 31.654 70.018 30.102 63.04 23.873 57.804 16.435 57.804 7.834 57.804 0.836 64.802 0.836 73.404S7.834 89.003 16.435 89.003C22.322 89.003 27.455 85.724 30.11 80.898 31.922 81.195 33.954 81.404 36.114 81.404 40.496 81.404 45.378 80.553 49.892 77.878 57.675 73.263 62.3 64.64 63.641 52.244 64.914 40.476 68.363 32.549 73.613 29.321 77.116 27.167 80.843 27.45 82.908 27.865 84.554 34.714 90.714 39.825 98.059 39.825 106.661 39.825 113.659 32.827 113.659 24.226 113.658 15.625 106.66 8.628 98.059 8.628M16.436 81.002C12.246 81.002 8.837 77.593 8.837 73.403S12.246 65.803 16.436 65.803 24.036 69.212 24.036 73.403C24.036 74.167 23.92 74.904 23.709 75.599L23.158 76.936A7.6 7.6 0 0 1 16.436 81.002M98.059 31.826C93.87 31.826 90.461 28.417 90.461 24.227S93.869 16.628 98.059 16.628 105.659 20.037 105.659 24.227 102.249 31.826 98.059 31.826" fill="#f9f9f9" data-fill-palette-color="quaternary"></path></svg></g></svg></g></svg></g></svg></g></svg></g><defs></defs></svg><rect width="395.52" height="101.03661667495392" fill="none" stroke="none" visibility="hidden"></rect></g></svg></g></svg>