<svg  viewBox="0 0 1498 384" fill="none" xmlns="http://www.w3.org/2000/svg">
<g clip-path="url(#clip0_257_8)">
<g clip-path="url(#clip1_257_8)">
<g clip-path="url(#clip2_257_8)">
<g clip-path="url(#clip3_257_8)">
<g clip-path="url(#clip4_257_8)">
<g clip-path="url(#clip5_257_8)">
<path d="M656.543 83.3758V327.406H607.668L496.999 160.181V327.406H448.123V83.3758H496.999L607.668 250.95V83.3758H656.543ZM838.082 133.997H887.307V327.406H838.082V302.968C831.798 311.347 823.582 317.91 813.435 322.658C803.334 327.452 792.348 329.849 780.479 329.849C765.35 329.849 751.968 326.638 740.331 320.214C728.693 313.837 719.547 304.411 712.89 291.936C706.28 279.507 702.975 264.682 702.975 247.459V133.997H751.851V240.477C751.851 255.838 755.691 267.638 763.372 275.877C771.052 284.162 781.526 288.305 794.792 288.305C808.291 288.305 818.881 284.162 826.561 275.877C834.242 267.638 838.082 255.838 838.082 240.477V133.997ZM1035.68 174.145H992.39V267.707C992.39 274.224 993.949 278.926 997.068 281.812C1000.23 284.744 1005.54 286.21 1012.99 286.21H1035.68V327.406H1004.96C963.763 327.406 943.165 307.39 943.165 267.358V174.145H920.124V133.997H943.165V86.1687H992.39V133.997H1035.68V174.145ZM1119.75 164.021C1126.03 153.78 1134.25 145.751 1144.39 139.932C1154.49 134.114 1166.06 131.204 1179.1 131.204V182.524H1166.18C1150.82 182.524 1139.25 186.131 1131.48 193.346C1123.66 200.561 1119.75 213.129 1119.75 231.051V327.406H1070.87V133.997H1119.75V164.021ZM1236.7 110.956C1228.09 110.956 1220.94 108.209 1215.26 102.717C1209.54 97.2705 1206.68 90.4744 1206.68 82.3284C1206.68 74.1825 1209.54 67.3864 1215.26 61.9402C1220.94 56.4475 1228.09 53.7012 1236.7 53.7012C1245.31 53.7012 1252.48 56.4475 1258.2 61.9402C1263.88 67.3864 1266.72 74.1825 1266.72 82.3284C1266.72 90.4744 1263.88 97.2705 1258.2 102.717C1252.48 108.209 1245.31 110.956 1236.7 110.956ZM1211.91 133.997H1260.79V327.406H1211.91V133.997ZM1296.4 230.003C1296.4 210.453 1300.28 193.114 1308.06 177.985C1315.88 162.857 1326.47 151.22 1339.83 143.074C1353.23 134.928 1368.2 130.855 1384.72 130.855C1399.15 130.855 1411.77 133.764 1422.57 139.583C1433.41 145.402 1442.09 152.733 1448.61 161.577V133.997H1497.84V327.406H1448.61V299.128C1442.33 308.204 1433.65 315.699 1422.57 321.61C1411.53 327.569 1398.8 330.548 1384.37 330.548C1368.08 330.548 1353.23 326.358 1339.83 317.98C1326.47 309.601 1315.88 297.778 1308.06 282.51C1300.28 267.288 1296.4 249.786 1296.4 230.003ZM1448.61 230.701C1448.61 218.832 1446.28 208.637 1441.63 200.119C1436.97 191.647 1430.69 185.131 1422.78 180.569C1414.86 176.054 1406.37 173.796 1397.29 173.796C1388.21 173.796 1379.84 176.007 1372.16 180.429C1364.47 184.851 1358.24 191.298 1353.44 199.77C1348.69 208.288 1346.32 218.366 1346.32 230.003C1346.32 241.64 1348.69 251.811 1353.44 260.516C1358.24 269.267 1364.52 275.97 1372.29 280.625C1380.11 285.279 1388.45 287.607 1397.29 287.607C1406.37 287.607 1414.86 285.326 1422.78 280.764C1430.69 276.249 1436.97 269.756 1441.63 261.284C1446.28 252.765 1448.61 242.571 1448.61 230.701Z" fill="white"/>
</g>
</g>
</g>
</g>
<g clip-path="url(#clip6_257_8)">
<g clip-path="url(#clip7_257_8)">
<path d="M114.91 383.426C51.5168 383.426 0.129395 332.039 0.129395 268.645V115.604C0.129395 52.2107 51.5168 0.823242 114.91 0.823242H267.952C331.345 0.823242 382.733 52.2107 382.733 115.604V268.645C382.733 332.039 331.345 383.426 267.952 383.426H114.91Z" fill="#CBEA7B"/>
<g clip-path="url(#clip8_257_8)">
<g clip-path="url(#clip9_257_8)">
<path d="M274.47 110.354C262.306 110.354 251.734 117.24 246.407 127.312C238.285 125.971 225.682 125.769 213.4 133.153C196.128 143.536 185.626 164.913 182.188 196.693C180.265 214.47 174.527 226.333 165.141 231.948C156.874 236.895 146.776 236.563 139.355 235.265C136.197 221.067 123.523 210.413 108.389 210.413C90.8887 210.413 76.6499 224.652 76.6499 242.154C76.6499 259.657 90.8887 273.894 108.389 273.894C120.367 273.894 130.812 267.222 136.214 257.402C139.901 258.007 144.035 258.432 148.43 258.432C157.346 258.432 167.28 256.7 176.464 251.258C192.3 241.867 201.711 224.322 204.439 199.1C207.03 175.156 214.047 159.027 224.729 152.459C231.857 148.076 239.44 148.652 243.642 149.496C246.991 163.432 259.525 173.831 274.47 173.831C291.972 173.831 306.211 159.592 306.211 142.092C306.209 124.591 291.97 110.354 274.47 110.354ZM108.391 257.614C99.8658 257.614 92.9295 250.678 92.9295 242.152C92.9295 233.627 99.8658 226.689 108.391 226.689C116.917 226.689 123.855 233.625 123.855 242.152C123.855 243.707 123.619 245.206 123.19 246.621L122.069 249.341C120.759 251.835 118.792 253.924 116.382 255.382C113.971 256.84 111.208 257.612 108.391 257.614ZM274.47 157.556C265.946 157.556 259.01 150.619 259.01 142.094C259.01 133.568 265.944 126.632 274.47 126.632C282.995 126.632 289.933 133.568 289.933 142.094C289.933 150.619 282.995 157.556 274.47 157.556Z" fill="black"/>
</g>
</g>
</g>
</g>
</g>
</g>
<defs>
<clipPath id="clip0_257_8">
<rect width="1497.74" height="382.602" fill="white" transform="translate(0.129395 0.823242)"/>
</clipPath>
<clipPath id="clip1_257_8">
<rect width="1497.74" height="382.602" fill="white" transform="translate(0.129395 0.823242)"/>
</clipPath>
<clipPath id="clip2_257_8">
<rect width="1049.78" height="276.847" fill="white" transform="translate(448.088 53.7012)"/>
</clipPath>
<clipPath id="clip3_257_8">
<rect width="1049.78" height="276.847" fill="white" transform="translate(448.088 53.7012)"/>
</clipPath>
<clipPath id="clip4_257_8">
<rect width="1049.78" height="276.847" fill="white" transform="translate(448.088 53.7012)"/>
</clipPath>
<clipPath id="clip5_257_8">
<rect width="1049.78" height="276.847" fill="white" transform="translate(448.088 53.7012)"/>
</clipPath>
<clipPath id="clip6_257_8">
<rect width="382.602" height="382.602" fill="white" transform="translate(0.129395 0.823242)"/>
</clipPath>
<clipPath id="clip7_257_8">
<rect width="382.602" height="382.602" fill="white" transform="translate(0.129395 0.823242)"/>
</clipPath>
<clipPath id="clip8_257_8">
<rect width="229.561" height="163.539" fill="white" transform="translate(76.6499 110.354)"/>
</clipPath>
<clipPath id="clip9_257_8">
<rect width="229.561" height="163.539" fill="white" transform="translate(76.6499 110.354)"/>
</clipPath>
</defs>
</svg>
